<svg xmlns="http://www.w3.org/2000/svg" width="200" height="55" viewBox="0 0 200 55" version="1.1"><path fill="#eeeeee" d="M25.51 0L29.7 0C29.7 2.52 29.7 5.03 29.7 7.55 28.3 7.55 26.91 7.55 25.51 7.54 25.51 5.03 25.51 2.51 25.51 0Z"/><path fill="#eeeeee" d="M6.75 9.61C7.66 8.51 8.59 7.43 9.52 6.35 11.34 8.2 13.17 10.03 14.96 11.9 13.98 12.86 13.01 13.82 12.03 14.77 10.29 13.03 8.54 11.29 6.75 9.61Z"/><path fill="#eeeeee" d="M45.32 6.74C46.37 7.68 47.44 8.62 48.51 9.54 46.68 11.36 44.86 13.2 43.02 15 42.05 14.02 41.08 13.04 40.12 12.05 41.86 10.29 43.61 8.54 45.32 6.74Z"/><path fill="#eeeeee" d="M23.53 12.74C32.24 10.06 42.24 16.8 42.73 25.92 43.94 34.43 36.61 42.97 27.97 42.73 19.86 43.26 12.45 36.03 12.32 27.99 11.97 21.11 16.96 14.57 23.53 12.74Z"/><path fill="#eeeeee" d="M68.47 41.76C68.47 32.38 68.47 23 68.47 13.63 70.5 13.63 72.53 13.62 74.56 13.62 74.56 17.29 74.55 20.96 74.55 24.63 78.94 24.62 83.33 24.63 87.73 24.63 87.72 20.97 87.71 17.3 87.72 13.63 89.74 13.63 91.77 13.62 93.8 13.63 93.8 23.01 93.8 32.38 93.8 41.77 91.77 41.77 89.74 41.76 87.71 41.74 87.72 37.77 87.74 33.8 87.67 29.84 83.31 29.84 78.94 29.84 74.58 29.84 74.54 33.81 74.56 37.79 74.56 41.77 72.53 41.76 70.5 41.76 68.47 41.76Z"/><path fill="#eeeeee" d="M99.59 13.63C101.62 13.63 103.65 13.62 105.68 13.62 105.68 23 105.67 32.38 105.68 41.77 103.65 41.77 101.62 41.76 99.59 41.75 99.6 32.38 99.6 23.01 99.59 13.63Z"/><path fill="#eeeeee" d="M111.15 13.62C113.16 13.62 115.17 13.63 117.18 13.65 117.18 17.75 117.14 21.85 117.24 25.95 120.45 21.82 123.69 17.72 126.96 13.63 129.44 13.62 131.93 13.63 134.42 13.64 130.76 18.11 126.97 22.46 123.29 26.91 127.29 31.66 130.99 36.66 135.01 41.4 138.57 32.14 142.09 22.86 145.7 13.62 148.23 13.63 150.75 13.63 153.28 13.62 156.89 22.99 160.55 32.34 164.05 41.75 161.72 41.76 159.4 41.75 157.08 41.68 156.53 40.07 155.94 38.47 155.33 36.88 151.44 36.89 147.54 36.9 143.65 36.87 143.04 38.46 142.46 40.06 141.91 41.67 137.15 41.69 132.36 41.99 127.61 41.58 124.79 38.25 122.47 34.52 119.68 31.16 118.42 31.08 117.68 32.13 117.3 33.18 117.01 36.02 117.21 38.88 117.19 41.72 115.17 41.75 113.15 41.77 111.13 41.76 111.22 32.38 110.95 23 111.15 13.62Z"/><path fill="#eeeeee" d="M166.68 13.63C171.86 13.71 177.06 13.46 182.23 13.74 187.8 14.54 191.03 21.02 188.93 26.08 188.12 28.63 185.82 30.24 183.46 31.23 185.46 34.76 187.56 38.25 189.64 41.74 187.29 41.76 184.95 41.77 182.6 41.77 180.75 38.45 178.96 35.11 177.09 31.81 175.65 31.8 174.21 31.8 172.78 31.81 172.75 35.13 172.77 38.45 172.77 41.76 170.73 41.77 168.71 41.76 166.68 41.74 166.69 32.37 166.69 23 166.68 13.63Z"/><path fill="#eeeeee" d="M193.82 13.65C195.88 13.63 197.94 13.62 200 13.62L200 41.78C197.94 41.77 195.88 41.75 193.82 41.71 193.83 32.36 193.82 23 193.82 13.65Z"/><path fill="#000000" fill-opacity="0.3" d="M24.47 16.6C32.01 14.13 40.3 21.32 38.73 29.14 38.06 37.54 26.76 41.89 20.5 36.33 13.39 31.13 15.9 18.65 24.47 16.6Z"/><path fill="#000000" fill-opacity="0.3" d="M172.78 18.84C175.96 18.75 179.19 18.74 182.27 19.68 183.24 21.51 183.4 23.56 182.51 25.45 179.46 26.91 176.02 26.38 172.76 26.43 172.76 23.9 172.76 21.37 172.78 18.84Z"/><path fill="#000000" fill-opacity="0.3" d="M149.18 20.56C151.55 23.85 152.19 27.97 153.76 31.65 150.91 31.67 148.05 31.67 145.2 31.65 146.55 27.96 147.88 24.27 149.18 20.56Z"/><path fill="#eeeeee" d="M0 25.24C2.51 25.23 5.02 25.23 7.53 25.23 7.53 26.63 7.52 28.02 7.52 29.42 5.01 29.42 2.51 29.42 0 29.41L0 25.24Z"/><path fill="#eeeeee" d="M47.33 25.58C49.81 25.58 52.29 25.58 54.77 25.58 54.78 26.98 54.78 28.37 54.79 29.77 52.3 29.77 49.81 29.77 47.32 29.77 47.32 28.37 47.33 26.98 47.33 25.58Z"/><path fill="#eeeeee" d="M6.3 45.39C8.2 43.63 9.97 41.75 11.88 40.01 12.81 40.98 13.75 41.96 14.68 42.94 12.95 44.66 11.24 46.4 9.58 48.19 8.43 47.32 7.36 46.36 6.3 45.39Z"/><path fill="#eeeeee" d="M40.32 43.62C40.15 42.05 42 41.35 42.8 40.25 44.5 42.02 46.25 43.74 48.05 45.41 47.17 46.53 46.24 47.62 45.3 48.69 43.65 47 41.89 45.4 40.32 43.62Z"/><path fill="#eeeeee" d="M25.18 47.45C26.57 47.45 27.95 47.46 29.34 47.47 29.34 49.98 29.34 52.49 29.34 55L25.18 55C25.18 52.48 25.18 49.96 25.18 47.45Z"/></svg>
